<?xml version="1.0" standalone="no"?>
<!DOCTYPE svg PUBLIC "-//W3C//DTD SVG 20010904//EN"
 "http://www.w3.org/TR/2001/REC-SVG-20010904/DTD/svg10.dtd">
<svg version="1.0" xmlns="http://www.w3.org/2000/svg"
 width="500.000000pt" height="500.000000pt" viewBox="0 0 500.000000 500.000000"
 preserveAspectRatio="xMidYMid meet">

<g transform="translate(0.000000,500.000000) scale(0.100000,-0.100000)"
fill="#000000" stroke="none">
<path d="M2605 4678 c-133 -105 -255 -246 -309 -358 -21 -41 -41 -82 -45 -91
-5 -8 -19 -55 -32 -105 -21 -79 -24 -106 -20 -239 11 -443 5 -523 -49 -586
-19 -23 -20 -23 -35 -5 -11 15 -13 41 -8 130 9 166 -18 246 -118 343 -23 24
-44 41 -46 40 -1 -2 9 -30 22 -63 19 -45 25 -78 25 -136 0 -85 -17 -142 -84
-275 -75 -151 -92 -281 -56 -425 24 -95 55 -158 117 -235 42 -53 136 -143 149
-143 2 0 -2 12 -10 28 -28 54 -41 176 -28 260 13 91 27 142 44 165 11 15 13 7
14 -45 0 -35 7 -74 14 -88 13 -24 14 -23 30 40 9 36 23 79 32 95 18 33 46 134
51 180 3 26 5 23 21 -29 16 -51 17 -67 6 -135 -10 -64 -9 -83 3 -111 l14 -35
12 60 c7 33 40 115 74 183 55 111 61 129 61 185 0 42 -8 78 -22 111 -12 27
-22 51 -22 53 0 18 87 -71 123 -125 56 -85 75 -143 88 -267 14 -136 27 -201
45 -215 12 -11 14 -2 14 61 0 78 22 140 62 175 21 19 21 19 13 -6 -19 -61 -17
-115 6 -187 12 -40 26 -73 30 -73 12 0 20 31 26 98 6 60 7 63 19 41 44 -80 56
-282 22 -376 l-15 -41 30 21 c52 38 137 149 177 232 60 121 75 189 75 335 -1
152 -17 217 -103 405 -70 152 -82 192 -91 300 l-6 80 -23 -50 c-37 -81 -45
-139 -37 -255 11 -139 8 -188 -14 -230 -20 -38 -64 -61 -82 -43 -7 7 -10 57
-10 137 2 170 -18 246 -119 452 -89 182 -111 253 -113 370 -1 45 -5 80 -10 77
-15 -9 -56 -101 -71 -160 -32 -124 -14 -268 49 -398 31 -62 32 -66 10 -40 -39
46 -92 158 -106 222 -16 80 -6 231 21 313 37 110 102 226 219 391 19 26 12 24
-34 -13z"/>
<path d="M2383 2786 c-88 -28 -172 -103 -214 -192 -35 -74 -33 -198 4 -275 15
-31 50 -77 77 -103 l49 -46 -49 -38 c-27 -20 -83 -62 -124 -92 -42 -30 -78
-63 -82 -73 -3 -10 2 -29 10 -42 15 -23 23 -25 91 -25 l74 0 8 -37 c4 -21 8
-117 7 -213 -1 -154 -4 -186 -27 -272 -45 -169 -125 -314 -238 -429 -33 -33
-59 -62 -59 -65 0 -2 136 -4 302 -4 166 0 299 -2 296 -5 -3 -3 -79 -10 -169
-15 -182 -11 -392 -28 -426 -36 -13 -2 -23 -11 -23 -18 0 -23 -54 -62 -106
-76 -66 -18 -94 -44 -94 -89 0 -61 2 -62 135 -50 288 25 1028 26 1325 1 117
-10 130 -5 130 50 0 39 -38 75 -93 89 -65 16 -105 54 -115 109 -7 36 -20 56
-63 100 -165 166 -251 357 -279 616 -10 93 1 311 17 337 2 4 37 7 77 7 81 0
96 9 96 56 0 35 -3 37 -145 134 -121 82 -115 71 -63 118 24 23 57 65 73 94 25
45 30 67 33 145 4 81 2 97 -20 145 -74 162 -252 245 -415 194z m362 -772 c71
-9 132 -18 134 -20 2 -2 -175 -3 -395 -3 -219 1 -391 3 -382 6 122 32 449 41
643 17z"/>
<path d="M1960 529 c-221 -13 -245 -17 -255 -42 -6 -13 -27 -27 -53 -36 -55
-17 -74 -47 -76 -119 l-1 -57 910 0 910 0 -1 51 c-2 75 -20 105 -74 124 -27 9
-49 24 -55 37 -12 28 -29 30 -280 43 -218 11 -840 11 -1025 -1z"/>
</g>
</svg>
